<?xml version="1.0" encoding="UTF-8" standalone="no"?>
<!DOCTYPE svg PUBLIC "-//W3C//DTD SVG 1.1//EN" "http://www.w3.org/Graphics/SVG/1.1/DTD/svg11.dtd">
<svg width="100%" height="100%" viewBox="0 0 1024 1024" version="1.1" xmlns="http://www.w3.org/2000/svg" xmlns:xlink="http://www.w3.org/1999/xlink" xml:space="preserve" xmlns:serif="http://www.serif.com/" style="fill-rule:evenodd;clip-rule:evenodd;stroke-linejoin:round;stroke-miterlimit:2;">
    <g transform="matrix(1,0,0,1,0,14)">
        <path d="M472.751,889.286L509.903,948.995L546.542,890.111C537.456,890.56 528.159,890.787 518.643,890.787C502.675,890.787 487.38,890.282 472.751,889.286ZM757.261,282.061L757.261,478.037C757.261,505.39 756.82,530.587 755.912,553.619L603.122,799.177C577.907,804.777 549.729,807.453 518.643,807.453C479.278,807.453 444.917,804.297 415.651,797.517L401.479,774.74L422.022,742.109C447.839,754.147 478.559,760.573 514.424,760.573C557.075,760.573 591.637,751.528 618.548,735.27C648.611,717.107 669.049,691.821 680.11,659.613C688.673,634.679 694.123,581.253 694.123,499.139L694.123,282.061L757.261,282.061ZM610.79,282.061L408.414,282.061L408.414,490.39C408.414,539.877 409.466,575.357 411.756,596.825C413.785,615.853 402.592,633.818 384.617,640.382L330.236,660.242L352.531,696.074L374.005,661.965C380.587,651.509 391.471,644.513 403.716,642.868C415.961,641.222 428.306,645.096 437.415,653.443C439.26,655.134 441.202,656.739 443.241,658.264C461.162,671.669 485.098,677.24 514.424,677.24C539.286,677.24 559.769,673.42 575.456,663.943C587.989,656.371 596.684,645.973 601.295,632.546C608.404,611.844 610.79,567.316 610.79,499.139L610.79,282.061ZM325.08,282.061L325.08,490.39C325.08,523.763 325.597,551.252 326.585,572.859L285.257,587.952L263.965,553.733C263.014,532.367 262.545,509.195 262.545,484.214L262.545,282.061L325.08,282.061ZM179.212,282.061L179.212,417.521L94.926,282.061L179.212,282.061ZM840.594,417.521L840.594,282.061L924.88,282.061L840.594,417.521Z" style="fill:rgb(151,225,255);"/>
    </g>
    <g transform="matrix(0.850732,0,0,0.850732,74.3283,43.8531)">
        <path d="M393.705,769.114C397.063,772.191 400.595,775.115 404.305,777.89C432.882,799.266 470.551,809.954 517.314,809.954C556.991,809.954 589.347,802.391 614.381,787.267C639.416,772.142 656.539,751.17 665.749,724.349C674.96,697.528 679.566,639.954 679.566,551.626L679.566,60.986L851.736,60.986L851.736,526.822C851.736,645.802 844.297,731.81 829.418,784.847C814.539,837.884 781.002,880.837 728.808,913.708C676.613,946.579 607.769,963.014 522.274,963.014C433.472,963.014 364.155,949.402 314.322,922.178C310.077,919.858 305.93,917.458 301.879,914.975L393.705,769.114ZM184.913,731.18C176.48,681.136 172.264,615.436 172.264,534.082L172.264,60.986L343.726,60.986L343.726,541.342C343.726,601.929 345.127,645.363 347.93,671.646L184.913,731.18Z" style="fill-rule:nonzero;"/>
    </g>
</svg>
